<?xml version="1.0" standalone="no"?>
<!DOCTYPE svg PUBLIC "-//W3C//DTD SVG 20010904//EN"
 "http://www.w3.org/TR/2001/REC-SVG-20010904/DTD/svg10.dtd">
<svg version="1.0" xmlns="http://www.w3.org/2000/svg"
 width="3004.000000pt" height="3004.000000pt" viewBox="0 0 3004.000000 3004.000000"
 preserveAspectRatio="xMidYMid meet">
<metadata>
Created by potrace 1.14, written by Peter Selinger 2001-2017
</metadata>
<g transform="translate(0.000000,3004.000000) scale(0.100000,-0.100000)"
fill="#000000" stroke="none">
<path d="M6628 29973 c-1 -5 -2 -1988 -3 -4409 l-1 -4401 4114 1 c2263 1 4119
-2 4125 -6 9 -5 12 -687 12 -2747 l1 -2739 -21 3 c-11 2 -49 6 -84 10 -91 8
-282 50 -381 84 -193 64 -332 132 -500 241 -108 71 -137 80 -184 59 -27 -13
-52 -62 -48 -94 3 -19 63 -196 82 -240 5 -11 21 -54 36 -95 15 -41 38 -103 51
-138 13 -34 34 -93 47 -130 13 -37 37 -103 54 -147 16 -44 50 -138 76 -210 26
-71 51 -139 56 -150 5 -11 50 -132 100 -270 50 -137 109 -297 130 -355 22 -58
82 -222 135 -365 53 -143 98 -267 100 -275 3 -8 59 -161 126 -340 67 -179 129
-350 139 -380 10 -30 24 -68 30 -85 18 -44 26 -64 48 -125 11 -30 32 -88 47
-128 15 -39 36 -79 48 -87 21 -14 -82 -118 -2993 -3029 l-3015 -3014 -2857 0
c-2160 0 -2856 3 -2853 11 2 7 6 44 9 82 22 278 146 618 327 895 80 122 87
154 40 201 -36 36 -74 38 -151 8 -30 -12 -95 -36 -145 -54 -83 -30 -194 -71
-400 -147 -118 -44 -293 -108 -350 -128 -27 -10 -160 -59 -295 -109 -135 -51
-252 -93 -260 -95 -8 -3 -28 -10 -45 -17 -16 -6 -34 -13 -40 -15 -5 -2 -59
-22 -120 -44 -60 -23 -146 -54 -190 -70 -44 -16 -111 -40 -150 -55 -38 -14
-126 -46 -195 -71 -69 -25 -152 -56 -185 -69 -33 -13 -247 -92 -475 -175 -634
-232 -588 -213 -608 -250 -24 -47 12 -140 54 -140 8 0 28 -7 46 -15 18 -8 188
-71 378 -140 190 -69 361 -132 380 -140 19 -8 123 -46 230 -86 107 -39 236
-86 285 -104 171 -62 510 -187 655 -241 248 -91 421 -154 535 -196 61 -22 119
-43 130 -48 11 -4 29 -11 40 -15 77 -28 240 -87 486 -178 158 -58 300 -108
317 -110 52 -8 101 36 101 93 1 33 -6 46 -81 159 -113 170 -219 422 -273 646
-15 60 -36 188 -41 245 -4 36 -8 68 -11 73 -2 4 -1 8 4 8 4 1 1290 2 2858 3
l2850 1 3032 -3032 3033 -3033 3033 3033 3032 3032 2855 0 c1806 -1 2855 -4
2854 -10 -1 -6 -4 -39 -8 -75 -6 -68 -10 -93 -26 -175 -6 -27 -12 -61 -15 -75
-8 -43 -76 -252 -97 -300 -60 -133 -110 -227 -180 -336 -46 -72 -78 -131 -78
-147 0 -59 47 -106 100 -101 22 2 224 71 275 94 22 10 629 232 715 262 30 10
64 23 75 28 11 5 64 25 118 44 53 20 141 52 195 72 53 19 111 40 127 46 17 5
39 14 50 19 11 5 57 22 103 38 46 16 86 32 89 35 4 3 13 6 21 6 8 0 28 6 45
14 18 8 59 24 92 35 33 12 67 24 75 28 8 3 20 7 25 9 6 1 24 8 40 15 17 7 33
13 37 13 3 1 10 4 14 8 4 5 17 8 29 8 12 0 25 3 28 7 8 7 178 72 190 73 5 0
23 6 40 14 28 13 215 82 632 233 66 24 136 50 155 58 19 7 100 37 180 66 192
68 228 106 184 190 -17 33 -33 42 -194 99 -58 21 -276 101 -485 178 -209 77
-425 156 -480 177 -55 20 -122 45 -150 55 -27 10 -138 51 -245 90 -282 103
-303 111 -325 121 -11 4 -51 19 -90 33 -38 13 -200 72 -360 131 -159 59 -330
122 -380 140 -49 18 -133 49 -185 68 -124 46 -500 185 -567 208 -75 27 -109
25 -144 -10 -46 -46 -40 -80 33 -192 72 -110 165 -290 209 -404 63 -166 114
-381 126 -532 l5 -71 -2853 0 -2854 0 -3011 3011 -3011 3010 23 21 c15 13 42
69 70 146 25 69 49 134 54 145 5 11 26 70 48 130 22 61 89 241 147 400 59 160
125 340 147 400 53 147 63 175 158 430 45 121 108 294 141 385 33 91 64 174
69 185 5 11 39 103 75 205 37 102 73 201 81 220 37 94 315 858 318 875 4 26
-18 70 -46 89 -41 29 -77 19 -183 -50 -264 -172 -605 -297 -900 -330 -33 -3
-68 -8 -77 -10 -10 -1 -19 0 -19 4 -5 23 -5 5469 0 5477 4 7 1410 10 4186 10
l4180 0 1 4408 1 4407 -8453 0 c-4650 0 -8455 -3 -8456 -7z"/>
</g>
</svg>
